<svg width="360" height="240" viewBox="0 0 360 240" fill="none" xmlns="http://www.w3.org/2000/svg">
<g filter="url(#filter0_d_9_20)">
<rect x="30" y="30" width="300" height="180" fill="white"/>
<g filter="url(#filter1_i_9_20)">
<path d="M52 142.499L152.5 41.4988H253L101 193.499H52V142.499Z" fill="#2F4172"/>
</g>
<g filter="url(#filter2_i_9_20)">
<path d="M301 41.9988H310V65.9988L185 192.999H149.5L301 41.9988Z" fill="#FF3333"/>
</g>
<g filter="url(#filter3_d_9_20)">
<path d="M61.8076 94.5663C61.8076 91.8808 62.3122 89.3743 63.3213 87.0468C64.3304 84.703 65.8034 82.6685 67.7402 80.9433C69.6771 79.218 72.0534 77.859 74.8691 76.8661C77.7012 75.8733 80.9401 75.3769 84.5859 75.3769C85.9043 75.3769 87.2227 75.4501 88.541 75.5966C89.8757 75.7268 91.1859 75.9384 92.4717 76.2314C93.7738 76.5243 95.0352 76.8987 96.2559 77.3544C97.4928 77.7939 98.6647 78.3228 99.7715 78.9413L96.207 84.8007C95.5397 84.4101 94.7829 84.0601 93.9365 83.7509C93.0902 83.4254 92.1787 83.1568 91.2021 82.9452C90.2419 82.7174 89.2409 82.5465 88.1992 82.4325C87.1738 82.3186 86.1403 82.2616 85.0986 82.2616C82.6898 82.2616 80.5413 82.5709 78.6533 83.1894C76.7653 83.7916 75.1702 84.6461 73.8682 85.7528C72.5661 86.8433 71.5732 88.1536 70.8896 89.6835C70.2061 91.2135 69.8643 92.8899 69.8643 94.7128C69.8643 96.6008 70.2223 98.3342 70.9385 99.913C71.6546 101.492 72.6719 102.851 73.9902 103.99C75.3086 105.129 76.9036 106.025 78.7754 106.676C80.6471 107.31 82.7386 107.628 85.0498 107.628C86.889 107.628 88.5736 107.424 90.1035 107.017C91.6335 106.594 92.9681 106 94.1074 105.235C95.2467 104.47 96.1745 103.551 96.8906 102.476C97.6068 101.386 98.0788 100.165 98.3066 98.8144H84.9766V92.4423H105.265V92.4667L105.289 92.4423C105.696 94.3954 105.818 96.2997 105.655 98.1552C105.509 99.9944 105.086 101.736 104.386 103.38C103.702 105.007 102.758 106.505 101.554 107.872C100.349 109.239 98.9089 110.419 97.2324 111.412C95.556 112.389 93.6517 113.154 91.5195 113.707C89.3874 114.244 87.0518 114.513 84.5127 114.513C80.9645 114.513 77.7826 113.992 74.9668 112.95C72.1673 111.908 69.791 110.484 67.8379 108.678C65.8848 106.871 64.3874 104.755 63.3457 102.33C62.3203 99.9049 61.8076 97.317 61.8076 94.5663ZM112.149 104.918C112.149 103.534 112.451 102.273 113.053 101.134C113.655 99.9944 114.558 99.0178 115.763 98.204C116.967 97.3739 118.465 96.7392 120.255 96.2997C122.062 95.844 124.161 95.6161 126.554 95.6161C128.328 95.6161 130.191 95.7463 132.145 96.0067C134.114 96.2672 136.14 96.6659 138.224 97.203C138.142 96.2916 137.866 95.4534 137.394 94.6884C136.922 93.9071 136.262 93.2398 135.416 92.6864C134.586 92.1168 133.577 91.6773 132.389 91.3681C131.217 91.0588 129.882 90.9042 128.385 90.9042C127.571 90.9042 126.676 90.953 125.699 91.0507C124.723 91.1483 123.714 91.2948 122.672 91.4901C121.63 91.6855 120.597 91.9296 119.571 92.2226C118.562 92.5155 117.618 92.8655 116.739 93.2724L114.542 87.3398C115.632 86.9491 116.796 86.5911 118.033 86.2655C119.286 85.94 120.564 85.6633 121.866 85.4355C123.168 85.1913 124.47 85.0041 125.772 84.8739C127.075 84.7437 128.336 84.6786 129.557 84.6786C134.944 84.6786 138.948 86.0539 141.568 88.8046C144.189 91.5552 145.499 95.7707 145.499 101.451V114H138.272V111.29C137.524 111.729 136.702 112.144 135.807 112.535C134.928 112.926 133.967 113.267 132.926 113.56C131.884 113.853 130.761 114.081 129.557 114.244C128.368 114.423 127.107 114.513 125.772 114.513C123.526 114.513 121.549 114.268 119.84 113.78C118.147 113.292 116.731 112.616 115.592 111.754C114.452 110.891 113.59 109.882 113.004 108.726C112.434 107.555 112.149 106.285 112.149 104.918ZM119.767 104.674C119.767 105.146 119.889 105.601 120.133 106.041C120.377 106.464 120.768 106.847 121.305 107.188C121.842 107.514 122.525 107.782 123.355 107.994C124.202 108.189 125.219 108.287 126.407 108.287C127.677 108.287 128.906 108.173 130.094 107.945C131.282 107.717 132.389 107.416 133.414 107.042C134.439 106.668 135.367 106.236 136.197 105.748C137.027 105.26 137.719 104.755 138.272 104.234V102.965C137.166 102.656 136.067 102.395 134.977 102.184C133.902 101.972 132.869 101.809 131.876 101.695C130.899 101.565 129.972 101.475 129.093 101.427C128.23 101.378 127.473 101.353 126.822 101.353C125.471 101.353 124.348 101.443 123.453 101.622C122.558 101.801 121.834 102.045 121.28 102.354C120.727 102.647 120.336 102.997 120.108 103.404C119.881 103.811 119.767 104.234 119.767 104.674ZM155.265 85.1913H162.491V87.6327C164.298 86.526 166.056 85.761 167.765 85.3378C169.49 84.8983 171.174 84.6786 172.818 84.6786C175.113 84.6786 177.221 85.0448 179.142 85.7773C181.062 86.5097 182.706 87.6164 184.073 89.0976C185.131 88.2838 186.173 87.6002 187.198 87.0468C188.224 86.4771 189.249 86.0214 190.274 85.6796C191.3 85.3215 192.341 85.0692 193.399 84.9228C194.457 84.76 195.548 84.6786 196.671 84.6786C199.031 84.6786 201.171 85.0041 203.092 85.6552C205.012 86.2899 206.648 87.2421 207.999 88.5116C209.366 89.7812 210.416 91.3681 211.148 93.2724C211.897 95.1604 212.271 97.3495 212.271 99.8398V114H205.069V101.012C205.069 99.4329 204.841 98.025 204.386 96.788C203.946 95.5347 203.32 94.4849 202.506 93.6386C201.708 92.776 200.748 92.1249 199.625 91.6855C198.518 91.2297 197.298 91.0019 195.963 91.0019C195.23 91.0019 194.482 91.0751 193.717 91.2216C192.952 91.3518 192.203 91.5634 191.471 91.8564C190.755 92.1493 190.079 92.5237 189.444 92.9794C188.81 93.4189 188.256 93.9397 187.784 94.5419V114H180.582V101.012C180.582 99.4329 180.354 98.025 179.898 96.788C179.459 95.5347 178.832 94.4849 178.019 93.6386C177.221 92.776 176.253 92.1249 175.113 91.6855C173.99 91.2297 172.753 91.0019 171.402 91.0019C170.572 91.0019 169.734 91.0914 168.888 91.2704C168.058 91.4332 167.252 91.6692 166.471 91.9784C165.706 92.2877 164.981 92.662 164.298 93.1015C163.631 93.5409 163.028 94.0373 162.491 94.5907V114H155.265V85.1913ZM220.011 99.498C220.011 97.5448 220.41 95.6812 221.207 93.9071C222.005 92.1168 223.152 90.538 224.649 89.1708C226.147 87.8036 227.978 86.7131 230.143 85.8993C232.324 85.0855 234.798 84.6786 237.564 84.6786C240.315 84.6786 242.789 85.0937 244.986 85.9237C247.2 86.7375 249.072 87.8606 250.602 89.2929C252.148 90.7252 253.328 92.4097 254.142 94.3466C254.972 96.2834 255.387 98.3586 255.387 100.572C255.387 100.849 255.379 101.15 255.362 101.475C255.362 101.785 255.346 102.07 255.313 102.33H228.067C228.377 103.193 228.873 103.982 229.557 104.698C230.257 105.414 231.127 106.033 232.169 106.554C233.211 107.074 234.415 107.481 235.782 107.774C237.149 108.051 238.663 108.189 240.323 108.189C241.983 108.189 243.635 108.018 245.279 107.677C246.923 107.319 248.494 106.871 249.991 106.334L252.433 111.851C251.489 112.291 250.528 112.682 249.552 113.023C248.591 113.349 247.582 113.626 246.524 113.853C245.483 114.065 244.384 114.228 243.229 114.342C242.089 114.456 240.885 114.513 239.615 114.513C236.376 114.513 233.536 114.122 231.095 113.341C228.653 112.559 226.611 111.493 224.967 110.142C223.323 108.792 222.086 107.205 221.256 105.382C220.426 103.559 220.011 101.598 220.011 99.498ZM247.721 96.6903C247.46 95.8928 247.053 95.1523 246.5 94.4687C245.963 93.7688 245.287 93.1666 244.474 92.662C243.66 92.1412 242.716 91.7343 241.642 91.4413C240.567 91.1483 239.387 91.0019 238.102 91.0019C236.734 91.0019 235.489 91.1565 234.366 91.4657C233.243 91.775 232.258 92.19 231.412 92.7108C230.566 93.2317 229.858 93.8339 229.288 94.5175C228.735 95.2011 228.328 95.9254 228.067 96.6903H247.721ZM63.7119 148.191H70.9385V150.633C72.7451 149.526 74.5029 148.761 76.2119 148.338C77.9372 147.898 79.6217 147.679 81.2656 147.679C83.5605 147.679 85.6683 148.045 87.5889 148.777C89.5094 149.51 91.1533 150.616 92.5205 152.098C93.5785 151.284 94.6201 150.6 95.6455 150.047C96.6709 149.477 97.6963 149.021 98.7217 148.68C99.7471 148.322 100.789 148.069 101.847 147.923C102.905 147.76 103.995 147.679 105.118 147.679C107.478 147.679 109.618 148.004 111.539 148.655C113.46 149.29 115.095 150.242 116.446 151.512C117.813 152.781 118.863 154.368 119.596 156.272C120.344 158.16 120.719 160.35 120.719 162.84V177H113.517V164.012C113.517 162.433 113.289 161.025 112.833 159.788C112.394 158.535 111.767 157.485 110.953 156.639C110.156 155.776 109.195 155.125 108.072 154.685C106.965 154.23 105.745 154.002 104.41 154.002C103.678 154.002 102.929 154.075 102.164 154.222C101.399 154.352 100.65 154.563 99.918 154.856C99.2018 155.149 98.5264 155.524 97.8916 155.979C97.2568 156.419 96.7035 156.94 96.2314 157.542V177H89.0293V164.012C89.0293 162.433 88.8014 161.025 88.3457 159.788C87.9062 158.535 87.2796 157.485 86.4658 156.639C85.6683 155.776 84.6999 155.125 83.5605 154.685C82.4375 154.23 81.2005 154.002 79.8496 154.002C79.0195 154.002 78.1813 154.091 77.335 154.27C76.5049 154.433 75.6992 154.669 74.918 154.978C74.153 155.288 73.4287 155.662 72.7451 156.101C72.0778 156.541 71.4756 157.037 70.9385 157.591V177H63.7119V148.191ZM128.458 167.918C128.458 166.534 128.759 165.273 129.361 164.134C129.964 162.994 130.867 162.018 132.071 161.204C133.276 160.374 134.773 159.739 136.563 159.3C138.37 158.844 140.47 158.616 142.862 158.616C144.636 158.616 146.5 158.746 148.453 159.007C150.423 159.267 152.449 159.666 154.532 160.203C154.451 159.292 154.174 158.453 153.702 157.688C153.23 156.907 152.571 156.24 151.725 155.686C150.895 155.117 149.885 154.677 148.697 154.368C147.525 154.059 146.191 153.904 144.693 153.904C143.88 153.904 142.984 153.953 142.008 154.051C141.031 154.148 140.022 154.295 138.98 154.49C137.939 154.685 136.905 154.93 135.88 155.223C134.871 155.516 133.927 155.865 133.048 156.272L130.851 150.34C131.941 149.949 133.105 149.591 134.342 149.266C135.595 148.94 136.873 148.663 138.175 148.435C139.477 148.191 140.779 148.004 142.081 147.874C143.383 147.744 144.645 147.679 145.865 147.679C151.253 147.679 155.257 149.054 157.877 151.805C160.497 154.555 161.808 158.771 161.808 164.451V177H154.581V174.29C153.832 174.729 153.01 175.144 152.115 175.535C151.236 175.926 150.276 176.267 149.234 176.56C148.193 176.853 147.07 177.081 145.865 177.244C144.677 177.423 143.416 177.513 142.081 177.513C139.835 177.513 137.857 177.268 136.148 176.78C134.456 176.292 133.04 175.616 131.9 174.754C130.761 173.891 129.898 172.882 129.312 171.726C128.743 170.555 128.458 169.285 128.458 167.918ZM136.075 167.674C136.075 168.146 136.197 168.601 136.441 169.041C136.686 169.464 137.076 169.847 137.613 170.188C138.15 170.514 138.834 170.782 139.664 170.994C140.51 171.189 141.528 171.287 142.716 171.287C143.985 171.287 145.214 171.173 146.402 170.945C147.59 170.717 148.697 170.416 149.723 170.042C150.748 169.668 151.676 169.236 152.506 168.748C153.336 168.26 154.028 167.755 154.581 167.234V165.965C153.474 165.656 152.376 165.395 151.285 165.184C150.211 164.972 149.177 164.809 148.185 164.695C147.208 164.565 146.28 164.475 145.401 164.427C144.539 164.378 143.782 164.353 143.131 164.353C141.78 164.353 140.657 164.443 139.762 164.622C138.867 164.801 138.142 165.045 137.589 165.354C137.035 165.647 136.645 165.997 136.417 166.404C136.189 166.811 136.075 167.234 136.075 167.674ZM171.378 148.191H178.604V150.633C180.525 149.542 182.356 148.777 184.098 148.338C185.855 147.898 187.573 147.679 189.249 147.679C191.446 147.679 193.481 148.004 195.353 148.655C197.224 149.29 198.844 150.242 200.211 151.512C201.578 152.781 202.644 154.368 203.409 156.272C204.19 158.16 204.581 160.35 204.581 162.84V177H197.379V164.012C197.379 162.433 197.151 161.025 196.695 159.788C196.256 158.535 195.613 157.485 194.767 156.639C193.937 155.776 192.919 155.125 191.715 154.685C190.527 154.23 189.192 154.002 187.711 154.002C186.93 154.002 186.124 154.083 185.294 154.246C184.48 154.409 183.674 154.645 182.877 154.954C182.096 155.247 181.339 155.621 180.606 156.077C179.874 156.517 179.207 157.021 178.604 157.591V177H171.378V148.191ZM217.276 144.261C216.56 144.261 215.909 144.163 215.323 143.968C214.754 143.756 214.265 143.479 213.858 143.138C213.451 142.78 213.134 142.373 212.906 141.917C212.695 141.445 212.589 140.948 212.589 140.428C212.589 139.891 212.695 139.394 212.906 138.938C213.134 138.466 213.451 138.059 213.858 137.718C214.265 137.376 214.754 137.107 215.323 136.912C215.909 136.7 216.56 136.595 217.276 136.595C218.009 136.595 218.66 136.7 219.229 136.912C219.815 137.107 220.312 137.376 220.719 137.718C221.126 138.059 221.435 138.466 221.646 138.938C221.874 139.394 221.988 139.891 221.988 140.428C221.988 140.948 221.874 141.445 221.646 141.917C221.435 142.373 221.126 142.78 220.719 143.138C220.312 143.479 219.815 143.756 219.229 143.968C218.66 144.163 218.009 144.261 217.276 144.261ZM213.663 148.191H220.89V177H213.663V148.191ZM228.8 167.918C228.8 166.534 229.101 165.273 229.703 164.134C230.305 162.994 231.209 162.018 232.413 161.204C233.618 160.374 235.115 159.739 236.905 159.3C238.712 158.844 240.812 158.616 243.204 158.616C244.978 158.616 246.842 158.746 248.795 159.007C250.764 159.267 252.791 159.666 254.874 160.203C254.793 159.292 254.516 158.453 254.044 157.688C253.572 156.907 252.913 156.24 252.066 155.686C251.236 155.117 250.227 154.677 249.039 154.368C247.867 154.059 246.533 153.904 245.035 153.904C244.221 153.904 243.326 153.953 242.35 154.051C241.373 154.148 240.364 154.295 239.322 154.49C238.281 154.685 237.247 154.93 236.222 155.223C235.213 155.516 234.269 155.865 233.39 156.272L231.192 150.34C232.283 149.949 233.447 149.591 234.684 149.266C235.937 148.94 237.215 148.663 238.517 148.435C239.819 148.191 241.121 148.004 242.423 147.874C243.725 147.744 244.986 147.679 246.207 147.679C251.594 147.679 255.598 149.054 258.219 151.805C260.839 154.555 262.149 158.771 262.149 164.451V177H254.923V174.29C254.174 174.729 253.352 175.144 252.457 175.535C251.578 175.926 250.618 176.267 249.576 176.56C248.535 176.853 247.411 177.081 246.207 177.244C245.019 177.423 243.757 177.513 242.423 177.513C240.177 177.513 238.199 177.268 236.49 176.78C234.798 176.292 233.382 175.616 232.242 174.754C231.103 173.891 230.24 172.882 229.654 171.726C229.085 170.555 228.8 169.285 228.8 167.918ZM236.417 167.674C236.417 168.146 236.539 168.601 236.783 169.041C237.027 169.464 237.418 169.847 237.955 170.188C238.492 170.514 239.176 170.782 240.006 170.994C240.852 171.189 241.869 171.287 243.058 171.287C244.327 171.287 245.556 171.173 246.744 170.945C247.932 170.717 249.039 170.416 250.064 170.042C251.09 169.668 252.018 169.236 252.848 168.748C253.678 168.26 254.369 167.755 254.923 167.234V165.965C253.816 165.656 252.717 165.395 251.627 165.184C250.553 164.972 249.519 164.809 248.526 164.695C247.55 164.565 246.622 164.475 245.743 164.427C244.881 164.378 244.124 164.353 243.473 164.353C242.122 164.353 240.999 164.443 240.104 164.622C239.208 164.801 238.484 165.045 237.931 165.354C237.377 165.647 236.987 165.997 236.759 166.404C236.531 166.811 236.417 167.234 236.417 167.674Z" fill="white"/>
</g>
</g>
<defs>
<filter id="filter0_d_9_20" x="0" y="0" width="360" height="240" filterUnits="userSpaceOnUse" color-interpolation-filters="sRGB">
<feFlood flood-opacity="0" result="BackgroundImageFix"/>
<feColorMatrix in="SourceAlpha" type="matrix" values="0 0 0 0 0 0 0 0 0 0 0 0 0 0 0 0 0 0 127 0" result="hardAlpha"/>
<feOffset/>
<feGaussianBlur stdDeviation="15"/>
<feComposite in2="hardAlpha" operator="out"/>
<feColorMatrix type="matrix" values="0 0 0 0 0 0 0 0 0 0 0 0 0 0 0 0 0 0 1 0"/>
<feBlend mode="normal" in2="BackgroundImageFix" result="effect1_dropShadow_9_20"/>
<feBlend mode="normal" in="SourceGraphic" in2="effect1_dropShadow_9_20" result="shape"/>
</filter>
<filter id="filter1_i_9_20" x="52" y="41.4988" width="211" height="162" filterUnits="userSpaceOnUse" color-interpolation-filters="sRGB">
<feFlood flood-opacity="0" result="BackgroundImageFix"/>
<feBlend mode="normal" in="SourceGraphic" in2="BackgroundImageFix" result="shape"/>
<feColorMatrix in="SourceAlpha" type="matrix" values="0 0 0 0 0 0 0 0 0 0 0 0 0 0 0 0 0 0 127 0" result="hardAlpha"/>
<feMorphology radius="10" operator="erode" in="SourceAlpha" result="effect1_innerShadow_9_20"/>
<feOffset dx="10" dy="10"/>
<feGaussianBlur stdDeviation="10"/>
<feComposite in2="hardAlpha" operator="arithmetic" k2="-1" k3="1"/>
<feColorMatrix type="matrix" values="0 0 0 0 0 0 0 0 0 0 0 0 0 0 0 0 0 0 0.38 0"/>
<feBlend mode="normal" in2="shape" result="effect1_innerShadow_9_20"/>
</filter>
<filter id="filter2_i_9_20" x="149.5" y="37.9988" width="164.5" height="155" filterUnits="userSpaceOnUse" color-interpolation-filters="sRGB">
<feFlood flood-opacity="0" result="BackgroundImageFix"/>
<feBlend mode="normal" in="SourceGraphic" in2="BackgroundImageFix" result="shape"/>
<feColorMatrix in="SourceAlpha" type="matrix" values="0 0 0 0 0 0 0 0 0 0 0 0 0 0 0 0 0 0 127 0" result="hardAlpha"/>
<feOffset dx="4" dy="-4"/>
<feGaussianBlur stdDeviation="5"/>
<feComposite in2="hardAlpha" operator="arithmetic" k2="-1" k3="1"/>
<feColorMatrix type="matrix" values="0 0 0 0 0 0 0 0 0 0 0 0 0 0 0 0 0 0 1 0"/>
<feBlend mode="normal" in2="shape" result="effect1_innerShadow_9_20"/>
</filter>
<filter id="filter3_d_9_20" x="51.8076" y="65.3769" width="220.342" height="122.136" filterUnits="userSpaceOnUse" color-interpolation-filters="sRGB">
<feFlood flood-opacity="0" result="BackgroundImageFix"/>
<feColorMatrix in="SourceAlpha" type="matrix" values="0 0 0 0 0 0 0 0 0 0 0 0 0 0 0 0 0 0 127 0" result="hardAlpha"/>
<feOffset/>
<feGaussianBlur stdDeviation="5"/>
<feComposite in2="hardAlpha" operator="out"/>
<feColorMatrix type="matrix" values="0 0 0 0 0 0 0 0 0 0 0 0 0 0 0 0 0 0 1 0"/>
<feBlend mode="normal" in2="BackgroundImageFix" result="effect1_dropShadow_9_20"/>
<feBlend mode="normal" in="SourceGraphic" in2="effect1_dropShadow_9_20" result="shape"/>
</filter>
</defs>
</svg>
